<?xml version="1.0" encoding="UTF-8"?>
<!--
Additional SVG icons
-->
<svg xmlns="http://www.w3.org/2000/svg" style="display: none">
  <!-- <symbol id="collections-library" viewBox="0 0 24 24" fill="currentColor" stroke="currentColor" stroke-width="2" stroke-linecap="round" stroke-linejoin="round"><path d="m16 6 4 14"/><path d="M12 6v14"/><path d="M8 8v12"/><path d="M4 4v16"/></symbol> -->

  <!-- Modified from https://lucide.dev/icons/library -->
  <!-- <symbol id="collections-library" viewBox="3 3 18 18" fill="none" stroke="currentColor" stroke-width="2" stroke-linecap="round" stroke-linejoin="round" class="lucide lucide-library">
    <path d="m16 6 4 14"/>
    <path d="M12 6v14"/>
    <path d="M8 8v12"/>
    <path d="M4 4v16"/>
  </symbol> -->

  <symbol id="collections-layers" viewBox="1 1 22 22" fill="none" stroke="currentColor" stroke-width="2" stroke-linecap="round" stroke-linejoin="round"><path d="M12.83 2.18a2 2 0 0 0-1.66 0L2.6 6.08a1 1 0 0 0 0 1.83l8.58 3.91a2 2 0 0 0 1.66 0l8.58-3.9a1 1 0 0 0 0-1.83z"/><path d="M2 12a1 1 0 0 0 .58.91l8.6 3.91a2 2 0 0 0 1.65 0l8.58-3.9A1 1 0 0 0 22 12"/><path d="M2 17a1 1 0 0 0 .58.91l8.6 3.91a2 2 0 0 0 1.65 0l8.58-3.9A1 1 0 0 0 22 17"/></symbol>

  <symbol id="collections-add" viewBox="1 1 22 22" fill="none" stroke="currentColor" stroke-width="2" stroke-linecap="round" stroke-linejoin="round"><path d="M12.83 2.18a2 2 0 0 0-1.66 0L2.6 6.08a1 1 0 0 0 0 1.83l8.58 3.91a2 2 0 0 0 1.66 0l8.58-3.9a1 1 0 0 0 0-1.83zM16 16.5h6m-3-3v6M2 12a1 1 0 0 0 .58.91l8.6 3.91a2 2 0 0 0 1.65 0M2 17a1 1 0 0 0 .58.91l8.6 3.91a2 2 0 0 0 1.65 0L15 21"/></symbol>
</svg>